# AST/ASF file generated using VICON BodyLanguage
# -----------------------------------------------
:version 1.10
:name VICON
:units
  mass 1.0
  length 0.45
  angle deg
:documentation
   .ast/.asf automatically generated from VICON data using
   VICON BodyBuilder and BodyLanguage model FoxedUp or BRILLIANT.MOD
:root
   order TX TY TZ RX RY RZ
   axis XYZ
   position 0 0 0  
   orientation 0 0 0 
:bonedata
  begin
     id 1 
     name lhipjoint
     direction 0.677091 -0.635792 0.370561 
     length 2.74323 
     axis 0 0 0  XYZ
  end
  begin
     id 2 
     name lfemur
     direction 0.34202 -0.939693 0  
     length 7.44995  
     axis 0 0 20  XYZ
    dof rx ry rz
    limits (-160.0 20.0)
           (-70.0 70.0)
           (-60.0 70.0)
  end
  begin
     id 3 
     name ltibia
     direction 0.34202 -0.939693 0   
     length 7.34467   
     axis 0 0 20   XYZ
    dof rx
    limits (-10.0 170.0)
  end
  begin
     id 4 
     name lfoot
     direction 0.101953 -0.280114 0.954537   
     length 1.72105   
     axis -90 7.62852e-016 20   XYZ
    dof rx rz
    limits (-45.0 90.0)
           (-70.0 20.0)
  end
  begin
     id 5 
     name ltoes
     direction 1.53537e-011 -4.21915e-011 1   
     length 0.865872   
     axis -90 7.62852e-016 20   XYZ
    dof rx
    limits (-90.0 20.0)
  end
  begin
     id 6 
     name rhipjoint
     direction -0.695735 -0.620586 0.361699   
     length 2.81045  
     axis 0 0 0  XYZ 
  end
  begin
     id 7 
     name rfemur
     direction -0.34202 -0.939693 0   
     length 7.29387   
     axis 0 0 -20   XYZ
    dof rx ry rz
    limits (-160.0 20.0)
           (-70.0 70.0)
           (-70.0 60.0)
  end
  begin
     id 8 
     name rtibia
     direction -0.34202 -0.939693 0   
     length 7.44935   
     axis 0 0 -20   XYZ
    dof rx
    limits (-10.0 170.0)
 end
 begin
     id 9 
     name rfoot
     direction -0.104163 -0.286184 0.952496   
     length 1.77731  
     axis -90 -7.62852e-016 -20   XYZ
    dof rx rz
    limits (-45.0 90.0)
           (-20.0 70.0)
  end
  begin
     id 10 
     name rtoes
     direction -1.5355e-011 -4.21888e-011 1   
     length 0.892424   
     axis -90 -7.62852e-016 -20   XYZ
    dof rx
    limits (-90.0 20.0)
  end
  begin
     id 11 
     name lowerback
     direction 0.0100202 0.997226 -0.0737589   
     length 2.16892   
     axis 0 0 0   XYZ
    dof rx ry rz
    limits (-20.0 45.0)
           (-30.0 30.0)
           (-30.0 30.0)
  end
  begin
     id 12 
     name upperback
     direction 0.00432398 0.999988 -0.00215019   
     length 2.17326   
     axis 0 0 0   XYZ
    dof rx ry rz
    limits (-20.0 45.0)
           (-30.0 30.0)
           (-30.0 30.0)
  end
  begin
     id 13 
     name thorax
     direction -0.00195047 0.999485 0.0320434   
     length 2.18139   
     axis 0 0 0   XYZ
    dof rx ry rz
    limits (-20.0 45.0)
           (-30.0 30.0)
           (-30.0 30.0)
  end
  begin
     id 14 
     name lowerneck
     direction 0.00782762 0.986241 0.165128   
     length 1.88415   
     axis 0 0 0   XYZ
    dof rx ry rz
    limits (-20.0 45.0)
           (-30.0 30.0)
           (-30.0 30.0)
  end
  begin
     id 15 
     name upperneck
     direction 0.00988667 0.981098 -0.193258   
     length 1.9242   
     axis 0 0 0   XYZ
    dof rx ry rz
    limits (-20.0 45.0)
           (-30.0 30.0)
           (-30.0 30.0)
  end
  begin
     id 16
     name head
     direction 0.00252199 0.996513 -0.0833958  
     length 1.93887  
     axis 0 0 0   XYZ
    dof rx ry rz
    limits (-20.0 45.0)
           (-30.0 30.0)
           (-30.0 30.0)
  end
  begin
     id 17 
     name lclavicle
     direction 0.929492 0.368193 -0.0218667  
     length 3.5955  
     axis 0 0 0   XYZ
    dof ry rz
    limits (-20.0 10.0)
           (0.0 20.0)
  end
  begin
     id 18 
     name lhumerus
     direction 1 -4.48972e-011 1.41911e-027   
     length 5.2795   
     axis 180 -30 -90   XYZ
    dof rx ry rz
    limits (-60.0 90.0)
           (-90.0 90.0)
           (-90.0 90.0)
  end
  begin
     id 19
     name lradius
     direction 1 -4.48963e-011 7.05772e-027   
     length 3.53504   
     axis 180 -30 -90   XYZ
    dof rx
    limits (-10.0 170.0)
  end
  begin
     id 20
     name lwrist
     direction 1 -4.48957e-011 9.54866e-027   
     length 1.76752   
     axis -7.69462e-015 90 90   XYZ
    dof ry
    limits (-180.0 0.0)
 end
  begin
     id 21 
     name lhand
     direction 1 -4.48979e-011 1.90973e-026   
     length 0.667948   
     axis -1.21857e-014 90 90   XYZ
    dof rx rz
    limits (-90.0 90.0)
           (-45.0 45.0)
  end
  begin
     id 22 
     name lfingers
     direction 1 -4.48987e-011 3.81946e-026   
     length 0.538517   
     axis -2.43714e-014 90 90   XYZ
    dof rx
    limits (0.0 90.0)
  end
  begin
     id 23
     name lthumb
     direction 0.707107 -6.34962e-011 0.707107   
     length 0.773206   
     axis -90 45 2.85299e-015   XYZ
    dof rx rz
    limits (-45.0 45.0)
           (-45.0 45.0)
  end
  begin
     id 24 
     name rclavicle
     direction -0.898763 0.414256 -0.143584   
     length 3.5176  
     axis 0 0 0   XYZ 
    dof ry rz
    limits (-10.0 20.0)
           (-20.0 0.0)
  end
  begin
     id 25 
     name rhumerus
     direction -1 -4.48971e-011 1.129e-027  
     length 5.25035   
     axis 180 30 90   XYZ
    dof rx ry rz
    limits (-90.0 60.0)
           (-90.0 90.0)
           (-90.0 90.0)
  end
  begin
     id 26 
     name rradius
     direction -1 -4.48955e-011 6.34664e-027   
     length 3.58884   
     axis 180 30 90   XYZ
    dof rx
    limits (-10.0 170.0)
  end
  begin
     id 27 
     name rwrist
     direction -1 -4.48966e-011 9.54866e-027   
     length 1.79442   
     axis -7.69462e-015 -90 -90   XYZ
    dof ry
    limits (-180.0 0.0)
  end
  begin
     id 28
     name rhand
     direction -1 -4.48973e-011 1.90973e-026   
     length 0.779235   
     axis -1.21857e-014 -90 -90   XYZ
    dof rx rz
    limits (-90.0 90.0)
           (-45.0 45.0)
  end
  begin
     id 29
     name rfingers
     direction -1 -4.48984e-011 3.81946e-026   
     length 0.62824   
     axis -2.43714e-014 -90 -90   XYZ
    dof rx
    limits (0.0 90.0)
  end
  begin
     id 30
     name rthumb
     direction -0.707107 -6.34968e-011 0.707107   
     length 0.90203   
     axis -90 -45 -2.85299e-015   XYZ
    dof rx rz
    limits (-45.0 45.0)
           (-45.0 45.0)
  end
:hierarchy
  begin
    root lhipjoint rhipjoint lowerback
    lhipjoint lfemur
    lfemur ltibia
    ltibia lfoot
    lfoot ltoes
    rhipjoint rfemur
    rfemur rtibia
    rtibia rfoot
    rfoot rtoes
    lowerback upperback
    upperback thorax
    thorax lowerneck lclavicle rclavicle
    lowerneck upperneck
    upperneck head
    lclavicle lhumerus
    lhumerus lradius
    lradius lwrist
    lwrist lhand lthumb
    lhand lfingers
    rclavicle rhumerus
    rhumerus rradius
    rradius rwrist
    rwrist rhand rthumb
    rhand rfingers
  end

#!OML:ASF I:\Random Stuff\random\construction\7_22_03\Session 2\subj1.ASF
:FULLY-SPECIFIED
:DEGREES
154
root 12.6008 17.9968 -10.3159 12.7451 -28.5958 -6.31509
lowerback 8.68321 -0.413464 -6.34163
upperback -0.0677782 -1.15864 0.759351
thorax -4.81131 -0.412856 4.51525
lowerneck -12.6503 -11.1415 -11.1567
upperneck 36.502 -21.6547 16.5823
head 19.8866 -8.77654 5.0326
rclavicle -1.94809e-014 3.10104e-014
rhumerus -37.5234 4.35602 -83.1316
rradius 41.8269
rwrist -24.6537
rhand -23.0536 18.6101
rfingers 7.12502
rthumb 3.39131 -11.3426
lclavicle -1.94809e-014 3.10104e-014
lhumerus -29.9272 -9.76286 82.2703
lradius 48.7833
lwrist 23.1179
lhand -18.4659 57.1613
lfingers 7.12502
lthumb 7.82066 86.9966
rfemur -16.1155 3.34601 11.012
rtibia 4.81944
rfoot -2.52512 -19.4075
rtoes 17.8491
lfemur -9.98351 -8.13339 -15.6372
ltibia 12.7011
lfoot -34.4315 43.3978
ltoes 31.2203
155
root 12.5089 17.9839 -10.3074 12.9441 -29.813 -6.19351
lowerback 8.49759 -0.41689 -6.2402
upperback -0.115122 -1.14604 0.670219
thorax -4.76156 -0.410738 4.35881
lowerneck -12.7898 -11.1373 -11.0188
upperneck 36.3755 -21.6525 16.5482
head 19.8074 -8.75775 4.97176
rclavicle -5.74488e-014 6.36111e-015
rhumerus -37.8192 3.40073 -82.767
rradius 42.5006
rwrist -24.995
rhand -24.0779 18.5107
rfingers 7.12502
rthumb 2.40211 -11.4555
lclavicle -5.74488e-014 6.36111e-015
lhumerus -29.9896 -9.90935 82.6028
lradius 48.8073
lwrist 22.9815
lhand -18.0629 57.3625
lfingers 7.12502
lthumb 8.20961 87.183
rfemur -14.5069 3.91824 10.813
rtibia -1.86858e-014
rfoot -1.26369 -20.854
rtoes 20.4029
lfemur -9.86962 -8.68078 -15.6153
ltibia 12.9408
lfoot -37.3341 43.6139
ltoes 33.6734
156
root 12.4099 17.9646 -10.3019 13.0575 -30.9494 -6.0489
lowerback 8.38175 -0.429839 -6.10869
upperback -0.103537 -1.14599 0.591617
thorax -4.68782 -0.417692 4.19897
lowerneck -13.0852 -11.0788 -10.8471
upperneck 36.3504 -21.5275 16.397
head 19.7713 -8.68199 4.87943
rclavicle -1.24042e-013 1.66979e-014
rhumerus -38.0449 2.35085 -82.3597
rradius 43.3468
rwrist -25.0886
rhand -25.2585 18.3602
rfingers 7.12502
rthumb 1.26188 -11.6158
lclavicle -1.24042e-013 1.66979e-014
lhumerus -29.9366 -9.83658 82.7211
lradius 48.5429
lwrist 21.8238
lhand -15.9202 56.3199
lfingers 7.12502
lthumb 10.2771 86.0488
rfemur -15.1331 4.49068 10.8344
rtibia -4.77083e-015
rfoot -2.87457 -22.8892
rtoes 24.1755
lfemur -9.71932 -9.68708 -15.5747
ltibia 13.2684
lfoot -41.2005 43.6578
ltoes 36.7754
157
root 12.3088 17.9407 -10.2998 13.1968 -32.034 -5.84579
lowerback 8.25568 -0.486366 -5.97564
upperback -0.0970459 -1.20271 0.528303
thorax -4.60696 -0.452527 4.06097
lowerneck -13.4187 -11.0488 -10.7732
upperneck 36.3548 -21.4189 16.2282
head 19.7827 -8.62453 4.79113
rclavicle -8.28932e-014 -1.59028e-015
rhumerus -38.0849 1.76333 -82.0488
rradius 44.1573
rwrist -25.4757
rhand -26.5233 18.1362
rfingers 7.12502
rthumb 0.0402814 -11.8436
lclavicle -8.28932e-014 -1.59028e-015
lhumerus -29.9745 -10.0372 82.9983
lradius 48.4829
lwrist 21.9518
lhand -15.6489 56.017
lfingers 7.12502
lthumb 10.5389 85.7328
rfemur -15.7498 5.01884 10.8853
rtibia -1.03368e-014
rfoot -4.58637 -25.0793
rtoes 27.5772
lfemur -9.67552 -10.6778 -15.5812
ltibia 13.6265
lfoot -44.2944 44.0399
ltoes 38.1104
158
root 12.205 17.9148 -10.3015 13.2666 -33.0905 -5.49968
lowerback 8.13146 -0.564714 -5.89643
upperback -0.0595089 -1.29464 0.433862
thorax -4.49078 -0.505687 3.9243
lowerneck -13.7482 -10.9598 -10.6749
upperneck 36.2358 -21.1712 16.0564
head 19.6729 -8.51075 4.72565
rclavicle 8.22969e-014 -1.27222e-014
rhumerus -37.9571 1.49257 -81.8362
rradius 44.9697
rwrist -26.2032
rhand -27.5087 18.1355
rfingers 7.12502
rthumb -0.911368 -11.8423
lclavicle 8.22969e-014 -1.27222e-014
lhumerus -30.0038 -10.1738 83.2219
lradius 48.3591
lwrist 22.1548
lhand -16.0244 55.8345
lfingers 7.12502
lthumb 10.1766 85.5684
rfemur -16.3028 5.51768 10.8949
rtibia -3.33958e-014
rfoot -6.46111 -27.0575
rtoes 30.2147
lfemur -9.67153 -11.1775 -15.7299
ltibia 14.0158
lfoot -46.0577 44.5653
ltoes 37.7718
159
root 12.0929 17.8907 -10.3072 13.1534 -34.1114 -4.98702
lowerback 8.05286 -0.646782 -5.89025
upperback 0.0548981 -1.40212 0.278428
thorax -4.31866 -0.569133 3.76646
lowerneck -14.0444 -10.7813 -10.5596
upperneck 36.0093 -20.7875 15.9733
head 19.4734 -8.33666 4.73273
rclavicle 6.16232e-014 1.03368e-014
rhumerus -37.727 1.29823 -81.7494
rradius 45.8282
rwrist -26.7274
rhand -28.5597 18.5552
rfingers 7.12502
rthumb -1.92646 -11.4159
lclavicle 6.16232e-014 1.03368e-014
lhumerus -29.9729 -10.2675 83.3019
lradius 48.2214
lwrist 22.4327
lhand -16.4113 55.7252
lfingers 7.12502
lthumb 9.80337 85.477
rfemur -16.6445 5.99177 10.8605
rtibia 1.59028e-015
rfoot -8.73828 -28.5344
rtoes 33.1633
lfemur -9.58167 -10.9014 -16.0391
ltibia 14.378
lfoot -46.8983 44.623
ltoes 37.4411
160
root 11.9695 17.8666 -10.3177 13.0456 -35.1098 -4.54395
lowerback 8.005 -0.718999 -5.99342
upperback 0.184174 -1.50165 0.259824
thorax -4.14365 -0.625386 3.81293
lowerneck -14.3412 -10.6485 -10.5562
upperneck 35.8337 -20.4225 15.8128
head 19.3145 -8.19016 4.7193
rclavicle 7.23576e-014 -1.11319e-014
rhumerus -37.4345 1.34304 -81.6259
rradius 46.7258
rwrist -26.8657
rhand -29.6929 19.2775
rfingers 7.12502
rthumb -3.02089 -10.6808
lclavicle 7.23576e-014 -1.11319e-014
lhumerus -29.9677 -10.3961 83.5219
lradius 48.2061
lwrist 23.4719
lhand -17.4781 56.1153
lfingers 7.12502
lthumb 8.77403 85.913
rfemur -16.9029 6.5053 11.0117
rtibia -4.69132e-014
rfoot -10.5291 -29.6096
rtoes 35.1602
lfemur -9.40022 -10.1108 -16.2598
ltibia 14.5848
lfoot -47.3338 44.2435
ltoes 37.8421
161
root 11.8279 17.8424 -10.3341 12.9139 -36.0338 -4.0645
lowerback 7.95386 -0.7662 -6.39902
upperback 0.302932 -1.58834 0.398222
thorax -3.96689 -0.66841 4.19257
lowerneck -14.727 -10.5232 -10.5873
upperneck 35.7778 -20.0119 15.4985
head 19.2174 -8.03528 4.6527
rclavicle -6.65929e-014 5.56597e-015
rhumerus -37.1502 1.57672 -81.3741
rradius 47.7102
rwrist -26.6643
rhand -30.6831 19.9193
rfingers 7.12502
rthumb -3.97715 -10.0234
lclavicle -6.65929e-014 5.56597e-015
lhumerus -29.9241 -10.1526 83.6757
lradius 47.7879
lwrist 23.0861
lhand -16.9737 55.675
lfingers 7.12502
lthumb 9.26074 85.4516
rfemur -17.0925 6.99433 11.3013
rtibia 3.4191e-014
rfoot -11.1328 -30.3825
rtoes 35.089
lfemur -9.13799 -8.73027 -16.4512
ltibia 14.6178
lfoot -46.6237 43.9395
ltoes 37.2368
162
root 11.6876 17.8179 -10.35 12.5776 -36.7195 -3.27019
lowerback 8.0089 -0.805877 -6.68367
upperback 0.392654 -1.67046 0.351913
thorax -3.88783 -0.709732 4.31323
lowerneck -15.055 -10.4239 -10.5272
upperneck 35.7016 -19.7072 15.2625
head 19.1248 -7.90667 4.5842
rclavicle -3.04141e-014 -1.51076e-014
rhumerus -36.9887 1.45933 -81.1468
rradius 48.7928
rwrist -26.0359
rhand -31.6109 20.4652
rfingers 7.12502
rthumb -4.87303 -9.45875
lclavicle -3.04141e-014 -1.51076e-014
lhumerus -29.8757 -10.478 83.8468
lradius 47.41
lwrist 23.3476
lhand -17.3585 55.7859
lfingers 7.12502
lthumb 8.88944 85.5787
rfemur -17.1888 7.20811 11.4164
rtibia -9.54166e-015
rfoot -10.7916 -30.8989
rtoes 33.7573
lfemur -8.90804 -7.33915 -16.8713
ltibia 14.5789
lfoot -45.2914 43.8091
ltoes 35.6292
163
root 11.5453 17.7914 -10.3633 12.1484 -37.1635 -2.30998
lowerback 8.08806 -0.833903 -6.67339
upperback 0.457389 -1.72146 0.110932
thorax -3.86601 -0.73991 4.06139
lowerneck -15.2644 -10.4307 -10.4127
upperneck 35.584 -19.6616 15.1718
head 19.0607 -7.86782 4.5141
rclavicle -5.4467e-014 -1.19271e-014
rhumerus -36.9943 0.85028 -80.9643
rradius 50.0187
rwrist -25.1834
rhand -32.5121 21.0737
rfingers 7.12502
rthumb -5.74318 -8.82848
lclavicle -5.4467e-014 -1.19271e-014
lhumerus -29.6818 -10.9851 83.7963
lradius 46.8113
lwrist 23.4415
lhand -17.2736 55.7034
lfingers 7.12502
lthumb 8.97129 85.4927
rfemur -17.1408 7.15247 11.4394
rtibia 4.92986e-014
rfoot -10.4109 -30.9744
rtoes 33.1892
lfemur -8.68128 -6.0628 -17.387
ltibia 14.395
lfoot -43.8648 43.5992
ltoes 33.8858
164
root 11.3954 17.7623 -10.3728 11.7728 -37.5031 -1.35705
lowerback 8.05512 -0.872449 -6.48887
upperback 0.492649 -1.76375 -0.149821
thorax -3.81929 -0.768933 3.68773
lowerneck -15.4611 -10.4422 -10.2938
upperneck 35.5227 -19.623 15.0418
head 19.0205 -7.83483 4.42713
rclavicle -5.36719e-014 1.74931e-014
rhumerus -37.0842 0.24984 -80.8384
rradius 51.316
rwrist -24.4509
rhand -33.4565 21.7107
rfingers 7.12502
rthumb -6.6549 -8.16468
lclavicle -5.36719e-014 1.74931e-014
lhumerus -29.4722 -11.3791 83.6395
lradius 46.094
lwrist 23.3465
lhand -17.0159 55.3365
lfingers 7.12502
lthumb 9.21999 85.1149
rfemur -17.0233 6.99119 11.4928
rtibia 3.18055e-015
rfoot -8.98586 -30.6277
rtoes 31.056
lfemur -8.44043 -4.79323 -17.8592
ltibia 14.0729
lfoot -42.4261 43.3258
ltoes 32.2956
165
root 11.2359 17.7385 -10.377 11.405 -37.8103 -0.405688
lowerback 7.90887 -0.927352 -6.30367
upperback 0.509005 -1.81557 -0.312381
thorax -3.72532 -0.802732 3.41497
lowerneck -15.493 -10.4483 -10.3377
upperneck 35.3645 -19.4931 14.8937
head 18.8765 -7.80074 4.38454
rclavicle 8.34896e-014 -7.95139e-015
rhumerus -37.1529 0.0114249 -80.7047
rradius 52.5338
rwrist -23.7697
rhand -34.7515 22.9338
rfingers 7.12502
rthumb -7.90493 -6.89843
lclavicle 8.34896e-014 -7.95139e-015
lhumerus -29.3419 -11.6856 83.6447
lradius 45.418
lwrist 23.1579
lhand -16.9862 55.3416
lfingers 7.12502
lthumb 9.24864 85.1188
rfemur -16.9856 6.69525 11.2431
rtibia -5.48646e-014
rfoot -8.6368 -29.4508
rtoes 32.9815
lfemur -8.06996 -3.95869 -18.2777
ltibia 13.5923
lfoot -41.3912 43.2353
ltoes 31.2021
166
root 11.0731 17.7117 -10.3745 10.9892 -37.9465 0.56575
lowerback 7.74045 -1.00985 -6.02099
upperback 0.529384 -1.89123 -0.409163
thorax -3.61382 -0.849683 3.15803
lowerneck -15.389 -10.4979 -10.5433
upperneck 35.1956 -19.4158 14.8041
head 18.7392 -7.81106 4.39061
rclavicle -6.24184e-014 3.89618e-014
rhumerus -37.144 -0.268516 -80.3795
rradius 53.6338
rwrist -22.6175
rhand -36.1448 24.8658
rfingers 7.12502
rthumb -9.24951 -4.9113
lclavicle -6.24184e-014 3.89618e-014
lhumerus -29.1996 -11.8194 83.762
lradius 44.7277
lwrist 22.7786
lhand -16.9773 55.732
lfingers 7.12502
lthumb 9.25726 85.5088
rfemur -18.4457 6.34198 11.0658
rtibia 3.00354
rfoot -11.4079 -28.5481
rtoes 36.996
lfemur -7.50029 -3.65962 -18.6718
ltibia 12.8244
lfoot -40.4532 43.4991
ltoes 29.8619
167
root 10.9099 17.6948 -10.3643 10.5812 -37.8613 1.34451
lowerback 7.65753 -1.1478 -5.4267
upperback 0.582586 -2.01708 -0.44888
thorax -3.52085 -0.925438 2.79278
lowerneck -15.4218 -10.466 -10.6658
upperneck 35.2302 -19.2413 14.6249
head 18.7097 -7.76854 4.37131
rclavicle -1.20563e-013 4.09496e-014
rhumerus -37.0186 -0.935302 -79.8224
rradius 54.5914
rwrist -20.8749
rhand -37.1864 26.9169
rfingers 7.12502
rthumb -10.2545 -2.81314
lclavicle -1.20563e-013 4.09496e-014
lhumerus -29.022 -11.3482 83.6984
lradius 43.8482
lwrist 21.9445
lhand -16.6614 55.4722
lfingers 7.12502
lthumb 9.56208 85.2352
rfemur -18.8901 5.70371 10.881
rtibia 4.07701
rfoot -11.6573 -28.1117
rtoes 37.9151
lfemur -6.70465 -3.53231 -18.8981
ltibia 11.802
lfoot -39.0786 44.0792
ltoes 27.2817
168
root 10.7413 17.7003 -10.3487 10.2817 -37.7518 1.69901
lowerback 7.65871 -1.28276 -4.5468
upperback 0.68649 -2.11363 -0.344638
thorax -3.43204 -0.989693 2.41564
lowerneck -15.5738 -10.2456 -10.5962
upperneck 35.3342 -18.7922 14.3565
head 18.6488 -7.5923 4.34566
rclavicle -7.73272e-014 3.02153e-014
rhumerus -36.7657 -1.86711 -79.0646
rradius 55.4018
rwrist -18.9893
rhand -38.125 29.0435
rfingers 7.12502
rthumb -11.1598 -0.639735
lclavicle -7.73272e-014 3.02153e-014
lhumerus -28.9525 -10.4573 83.6846
lradius 43.1701
lwrist 21.1872
lhand -17.1753 55.8126
lfingers 7.12502
lthumb 9.06617 85.5978
rfemur -18.9017 5.21093 11.3043
rtibia 4.71478
rfoot -7.99483 -28.9053
rtoes 30.3754
lfemur -5.63444 -3.65932 -18.768
ltibia 10.6405
lfoot -38.1226 44.7261
ltoes 25.117
